<mxfile host="app.diagrams.net" agent="5.0" version="24.7.17">
  <diagram name="Activity Diagram" id="activity-diagram-clean">
    <mxGraphModel dx="1422" dy="754" grid="1" gridSize="10" guides="1" tooltips="1" connect="1" arrows="1" fold="1" page="1" pageScale="1" pageWidth="1169" pageHeight="1654" math="0" shadow="0">
      <root>
        <mxCell id="0" />
        <mxCell id="1" parent="0" />
        
        <!-- Title -->
        <mxCell id="title" value="Activity Diagram - DSA Learning Process" style="text;html=1;align=center;verticalAlign=middle;whiteSpace=wrap;rounded=0;fontSize=18;fontStyle=1" vertex="1" parent="1">
          <mxGeometry x="284" y="30" width="600" height="30" as="geometry" />
        </mxCell>

        <!-- Swimlanes -->
        <mxCell id="student-lane" value="Student" style="swimlane;html=1;childLayout=stackLayout;resizeParent=1;resizeParentMax=0;horizontal=0;startSize=20;horizontalStack=0;fontSize=16;fontStyle=1;fillColor=#e1d5e7;strokeColor=#9673a6" vertex="1" parent="1">
          <mxGeometry x="120" y="80" width="280" height="1500" as="geometry" />
        </mxCell>

        <mxCell id="system-lane" value="DSA Platform" style="swimlane;html=1;childLayout=stackLayout;resizeParent=1;resizeParentMax=0;horizontal=0;startSize=20;horizontalStack=0;fontSize=16;fontStyle=1;fillColor=#d5e8d4;strokeColor=#82b366" vertex="1" parent="1">
          <mxGeometry x="400" y="80" width="280" height="1500" as="geometry" />
        </mxCell>

        <mxCell id="ai-lane" value="AI Assistant" style="swimlane;html=1;childLayout=stackLayout;resizeParent=1;resizeParentMax=0;horizontal=0;startSize=20;horizontalStack=0;fontSize=16;fontStyle=1;fillColor=#fff2cc;strokeColor=#d6b656" vertex="1" parent="1">
          <mxGeometry x="680" y="80" width="280" height="1500" as="geometry" />
        </mxCell>

        <!-- Start Node -->
        <mxCell id="start" value="" style="ellipse;whiteSpace=wrap;html=1;aspect=fixed;fillColor=#000000;strokeColor=#000000" vertex="1" parent="1">
          <mxGeometry x="240" y="120" width="40" height="40" as="geometry" />
        </mxCell>

        <!-- Student Activities -->
        <mxCell id="login" value="User Login&#xa;Authentication" style="rounded=1;whiteSpace=wrap;html=1;fontSize=10;fillColor=#e1d5e7;strokeColor=#9673a6" vertex="1" parent="1">
          <mxGeometry x="180" y="190" width="120" height="40" as="geometry" />
        </mxCell>

        <mxCell id="select-algorithm" value="Select Learning&#xa;Topic/Algorithm" style="rounded=1;whiteSpace=wrap;html=1;fontSize=10;fillColor=#e1d5e7;strokeColor=#9673a6" vertex="1" parent="1">
          <mxGeometry x="180" y="260" width="120" height="40" as="geometry" />
        </mxCell>

        <mxCell id="read-theory" value="Read Theory&#xa;Materials" style="rounded=1;whiteSpace=wrap;html=1;fontSize=10;fillColor=#e1d5e7;strokeColor=#9673a6" vertex="1" parent="1">
          <mxGeometry x="180" y="330" width="120" height="40" as="geometry" />
        </mxCell>

        <mxCell id="understand-theory" value="Theory&#xa;Clear?" style="rhombus;whiteSpace=wrap;html=1;fontSize=10;fillColor=#e1d5e7;strokeColor=#9673a6" vertex="1" parent="1">
          <mxGeometry x="205" y="400" width="70" height="70" as="geometry" />
        </mxCell>

        <mxCell id="start-visualization" value="Start Algorithm&#xa;Visualization" style="rounded=1;whiteSpace=wrap;html=1;fontSize=10;fillColor=#e1d5e7;strokeColor=#9673a6" vertex="1" parent="1">
          <mxGeometry x="180" y="500" width="120" height="40" as="geometry" />
        </mxCell>

        <mxCell id="interact-demo" value="Interact with&#xa;Demo" style="rounded=1;whiteSpace=wrap;html=1;fontSize=10;fillColor=#e1d5e7;strokeColor=#9673a6" vertex="1" parent="1">
          <mxGeometry x="180" y="570" width="120" height="40" as="geometry" />
        </mxCell>

        <mxCell id="practice-code" value="Practice Code&#xa;Implementation" style="rounded=1;whiteSpace=wrap;html=1;fontSize=10;fillColor=#e1d5e7;strokeColor=#9673a6" vertex="1" parent="1">
          <mxGeometry x="180" y="640" width="120" height="40" as="geometry" />
        </mxCell>

        <mxCell id="need-help" value="Need&#xa;Help?" style="rhombus;whiteSpace=wrap;html=1;fontSize=10;fillColor=#e1d5e7;strokeColor=#9673a6" vertex="1" parent="1">
          <mxGeometry x="205" y="710" width="70" height="70" as="geometry" />
        </mxCell>

        <mxCell id="practice-needed" value="Need More&#xa;Practice?" style="rhombus;whiteSpace=wrap;html=1;fontSize=10;fillColor=#e1d5e7;strokeColor=#9673a6" vertex="1" parent="1">
          <mxGeometry x="205" y="810" width="70" height="70" as="geometry" />
        </mxCell>

        <mxCell id="complete-exercise" value="Complete&#xa;Exercise" style="rounded=1;whiteSpace=wrap;html=1;fontSize=10;fillColor=#e1d5e7;strokeColor=#9673a6" vertex="1" parent="1">
          <mxGeometry x="180" y="910" width="120" height="40" as="geometry" />
        </mxCell>

        <mxCell id="complete-assessment" value="Complete&#xa;Assessment" style="rounded=1;whiteSpace=wrap;html=1;fontSize=10;fillColor=#e1d5e7;strokeColor=#9673a6" vertex="1" parent="1">
          <mxGeometry x="180" y="980" width="120" height="40" as="geometry" />
        </mxCell>

        <!-- System Activities -->
        <mxCell id="validate-user" value="Validate User&#xa;Credentials" style="rounded=1;whiteSpace=wrap;html=1;fontSize=10;fillColor=#d5e8d4;strokeColor=#82b366" vertex="1" parent="1">
          <mxGeometry x="460" y="190" width="120" height="40" as="geometry" />
        </mxCell>

        <mxCell id="load-algorithm" value="Load Algorithm&#xa;Content" style="rounded=1;whiteSpace=wrap;html=1;fontSize=10;fillColor=#d5e8d4;strokeColor=#82b366" vertex="1" parent="1">
          <mxGeometry x="460" y="260" width="120" height="40" as="geometry" />
        </mxCell>

        <mxCell id="display-theory" value="Display Theory&#xa;Materials" style="rounded=1;whiteSpace=wrap;html=1;fontSize=10;fillColor=#d5e8d4;strokeColor=#82b366" vertex="1" parent="1">
          <mxGeometry x="460" y="330" width="120" height="40" as="geometry" />
        </mxCell>

        <mxCell id="prepare-visualizer" value="Initialize&#xa;Visualizer" style="rounded=1;whiteSpace=wrap;html=1;fontSize=10;fillColor=#d5e8d4;strokeColor=#82b366" vertex="1" parent="1">
          <mxGeometry x="460" y="500" width="120" height="40" as="geometry" />
        </mxCell>

        <mxCell id="render-animation" value="Render Step-by-step&#xa;Animation" style="rounded=1;whiteSpace=wrap;html=1;fontSize=10;fillColor=#d5e8d4;strokeColor=#82b366" vertex="1" parent="1">
          <mxGeometry x="460" y="570" width="120" height="40" as="geometry" />
        </mxCell>

        <mxCell id="code-playground" value="Open Code&#xa;Playground" style="rounded=1;whiteSpace=wrap;html=1;fontSize=10;fillColor=#d5e8d4;strokeColor=#82b366" vertex="1" parent="1">
          <mxGeometry x="460" y="640" width="120" height="40" as="geometry" />
        </mxCell>

        <mxCell id="track-progress" value="Track User&#xa;Progress" style="rounded=1;whiteSpace=wrap;html=1;fontSize=10;fillColor=#d5e8d4;strokeColor=#82b366" vertex="1" parent="1">
          <mxGeometry x="460" y="810" width="120" height="40" as="geometry" />
        </mxCell>

        <mxCell id="run-performance-test" value="Run Performance&#xa;Test" style="rounded=1;whiteSpace=wrap;html=1;fontSize=10;fillColor=#d5e8d4;strokeColor=#82b366" vertex="1" parent="1">
          <mxGeometry x="460" y="910" width="120" height="40" as="geometry" />
        </mxCell>

        <mxCell id="save-results" value="Save Assessment&#xa;Results" style="rounded=1;whiteSpace=wrap;html=1;fontSize=10;fillColor=#d5e8d4;strokeColor=#82b366" vertex="1" parent="1">
          <mxGeometry x="460" y="980" width="120" height="40" as="geometry" />
        </mxCell>

        <mxCell id="generate-certificate" value="Generate&#xa;Certificate" style="rounded=1;whiteSpace=wrap;html=1;fontSize=10;fillColor=#d5e8d4;strokeColor=#82b366" vertex="1" parent="1">
          <mxGeometry x="460" y="1050" width="120" height="40" as="geometry" />
        </mxCell>

        <!-- AI Assistant Activities -->
        <mxCell id="analyze-difficulty" value="Analyze Content&#xa;Difficulty" style="rounded=1;whiteSpace=wrap;html=1;fontSize=10;fillColor=#fff2cc;strokeColor=#d6b656" vertex="1" parent="1">
          <mxGeometry x="740" y="260" width="120" height="40" as="geometry" />
        </mxCell>

        <mxCell id="provide-explanation" value="Provide Contextual&#xa;Explanations" style="rounded=1;whiteSpace=wrap;html=1;fontSize=10;fillColor=#fff2cc;strokeColor=#d6b656" vertex="1" parent="1">
          <mxGeometry x="740" y="400" width="120" height="40" as="geometry" />
        </mxCell>

        <mxCell id="adaptive-hints" value="Provide Adaptive&#xa;Hints" style="rounded=1;whiteSpace=wrap;html=1;fontSize=10;fillColor=#fff2cc;strokeColor=#d6b656" vertex="1" parent="1">
          <mxGeometry x="740" y="500" width="120" height="40" as="geometry" />
        </mxCell>

        <mxCell id="real-time-help" value="Real-time&#xa;Assistance" style="rounded=1;whiteSpace=wrap;html=1;fontSize=10;fillColor=#fff2cc;strokeColor=#d6b656" vertex="1" parent="1">
          <mxGeometry x="740" y="570" width="120" height="40" as="geometry" />
        </mxCell>

        <mxCell id="generate-hints" value="Generate&#xa;Hints" style="rounded=1;whiteSpace=wrap;html=1;fontSize=10;fillColor=#fff2cc;strokeColor=#d6b656" vertex="1" parent="1">
          <mxGeometry x="740" y="710" width="120" height="40" as="geometry" />
        </mxCell>

        <mxCell id="optimize-code" value="Optimize&#xa;Code" style="rounded=1;whiteSpace=wrap;html=1;fontSize=10;fillColor=#fff2cc;strokeColor=#d6b656" vertex="1" parent="1">
          <mxGeometry x="740" y="780" width="120" height="40" as="geometry" />
        </mxCell>

        <mxCell id="answer-questions" value="Answer&#xa;Questions" style="rounded=1;whiteSpace=wrap;html=1;fontSize=10;fillColor=#fff2cc;strokeColor=#d6b656" vertex="1" parent="1">
          <mxGeometry x="740" y="850" width="120" height="40" as="geometry" />
        </mxCell>

        <mxCell id="personalize-content" value="Personalize Next&#xa;Learning Path" style="rounded=1;whiteSpace=wrap;html=1;fontSize=10;fillColor=#fff2cc;strokeColor=#d6b656" vertex="1" parent="1">
          <mxGeometry x="740" y="920" width="120" height="40" as="geometry" />
        </mxCell>

        <mxCell id="evaluate-performance" value="Evaluate Learning&#xa;Performance" style="rounded=1;whiteSpace=wrap;html=1;fontSize=10;fillColor=#fff2cc;strokeColor=#d6b656" vertex="1" parent="1">
          <mxGeometry x="740" y="980" width="120" height="40" as="geometry" />
        </mxCell>

        <!-- End Node -->
        <mxCell id="end" value="" style="ellipse;whiteSpace=wrap;html=1;aspect=fixed;fillColor=#ffffff;strokeColor=#000000;strokeWidth=3" vertex="1" parent="1">
          <mxGeometry x="500" y="1120" width="40" height="40" as="geometry" />
        </mxCell>

        <mxCell id="end-inner" value="" style="ellipse;whiteSpace=wrap;html=1;aspect=fixed;fillColor=#000000;strokeColor=#000000" vertex="1" parent="1">
          <mxGeometry x="510" y="1130" width="20" height="20" as="geometry" />
        </mxCell>

        <!-- Main Flow Arrows -->
        <mxCell id="flow1" style="endArrow=classic;html=1;rounded=0;exitX=0.5;exitY=1;exitDx=0;exitDy=0;entryX=0.5;entryY=0;entryDx=0;entryDy=0" edge="1" parent="1" source="start" target="login">
          <mxGeometry width="50" height="50" relative="1" as="geometry">
            <mxPoint x="400" y="400" as="sourcePoint" />
            <mxPoint x="450" y="350" as="targetPoint" />
          </mxGeometry>
        </mxCell>

        <mxCell id="flow2" style="endArrow=classic;html=1;rounded=0;exitX=0.5;exitY=1;exitDx=0;exitDy=0;entryX=0.5;entryY=0;entryDx=0;entryDy=0" edge="1" parent="1" source="login" target="select-algorithm">
          <mxGeometry width="50" height="50" relative="1" as="geometry">
            <mxPoint x="250" y="230" as="sourcePoint" />
            <mxPoint x="250" y="260" as="targetPoint" />
          </mxGeometry>
        </mxCell>

        <mxCell id="flow3" style="endArrow=classic;html=1;rounded=0;exitX=0.5;exitY=1;exitDx=0;exitDy=0;entryX=0.5;entryY=0;entryDx=0;entryDy=0" edge="1" parent="1" source="select-algorithm" target="read-theory">
          <mxGeometry width="50" height="50" relative="1" as="geometry">
            <mxPoint x="250" y="300" as="sourcePoint" />
            <mxPoint x="250" y="330" as="targetPoint" />
          </mxGeometry>
        </mxCell>

        <mxCell id="flow4" style="endArrow=classic;html=1;rounded=0;exitX=0.5;exitY=1;exitDx=0;exitDy=0;entryX=0.5;entryY=0;entryDx=0;entryDy=0" edge="1" parent="1" source="read-theory" target="understand-theory">
          <mxGeometry width="50" height="50" relative="1" as="geometry">
            <mxPoint x="240" y="370" as="sourcePoint" />
            <mxPoint x="240" y="400" as="targetPoint" />
          </mxGeometry>
        </mxCell>

        <mxCell id="flow5" style="endArrow=classic;html=1;rounded=0;exitX=0.5;exitY=1;exitDx=0;exitDy=0;entryX=0.5;entryY=0;entryDx=0;entryDy=0" edge="1" parent="1" source="understand-theory" target="start-visualization">
          <mxGeometry width="50" height="50" relative="1" as="geometry">
            <mxPoint x="240" y="470" as="sourcePoint" />
            <mxPoint x="240" y="500" as="targetPoint" />
          </mxGeometry>
        </mxCell>

        <mxCell id="flow-yes1" value="Yes" style="text;html=1;align=center;verticalAlign=middle;whiteSpace=wrap;rounded=0;fontSize=8" vertex="1" parent="1">
          <mxGeometry x="250" y="475" width="20" height="20" as="geometry" />
        </mxCell>

        <!-- Loop back for understanding -->
        <mxCell id="loop1" style="endArrow=classic;html=1;rounded=0;exitX=0;exitY=0.5;exitDx=0;exitDy=0;entryX=0;entryY=0.5;entryDx=0;entryDy=0" edge="1" parent="1" source="understand-theory" target="read-theory">
          <mxGeometry width="50" height="50" relative="1" as="geometry">
            <mxPoint x="205" y="435" as="sourcePoint" />
            <mxPoint x="140" y="350" as="targetPoint" />
            <Array as="points">
              <mxPoint x="140" y="435" />
              <mxPoint x="140" y="350" />
            </Array>
          </mxGeometry>
        </mxCell>

        <mxCell id="flow-no1" value="No" style="text;html=1;align=center;verticalAlign=middle;whiteSpace=wrap;rounded=0;fontSize=8" vertex="1" parent="1">
          <mxGeometry x="145" y="390" width="20" height="20" as="geometry" />
        </mxCell>

        <!-- Continue main flow -->
        <mxCell id="flow6" style="endArrow=classic;html=1;rounded=0;exitX=0.5;exitY=1;exitDx=0;exitDy=0;entryX=0.5;entryY=0;entryDx=0;entryDy=0" edge="1" parent="1" source="start-visualization" target="interact-demo">
          <mxGeometry width="50" height="50" relative="1" as="geometry">
            <mxPoint x="240" y="540" as="sourcePoint" />
            <mxPoint x="240" y="570" as="targetPoint" />
          </mxGeometry>
        </mxCell>

        <mxCell id="flow7" style="endArrow=classic;html=1;rounded=0;exitX=0.5;exitY=1;exitDx=0;exitDy=0;entryX=0.5;entryY=0;entryDx=0;entryDy=0" edge="1" parent="1" source="interact-demo" target="practice-code">
          <mxGeometry width="50" height="50" relative="1" as="geometry">
            <mxPoint x="240" y="610" as="sourcePoint" />
            <mxPoint x="240" y="640" as="targetPoint" />
          </mxGeometry>
        </mxCell>

        <mxCell id="flow8" style="endArrow=classic;html=1;rounded=0;exitX=0.5;exitY=1;exitDx=0;exitDy=0;entryX=0.5;entryY=0;entryDx=0;entryDy=0" edge="1" parent="1" source="practice-code" target="need-help">
          <mxGeometry width="50" height="50" relative="1" as="geometry">
            <mxPoint x="240" y="680" as="sourcePoint" />
            <mxPoint x="240" y="710" as="targetPoint" />
          </mxGeometry>
        </mxCell>

        <mxCell id="flow9" style="endArrow=classic;html=1;rounded=0;exitX=0.5;exitY=1;exitDx=0;exitDy=0;entryX=0.5;entryY=0;entryDx=0;entryDy=0" edge="1" parent="1" source="need-help" target="practice-needed">
          <mxGeometry width="50" height="50" relative="1" as="geometry">
            <mxPoint x="240" y="780" as="sourcePoint" />
            <mxPoint x="240" y="810" as="targetPoint" />
          </mxGeometry>
        </mxCell>

        <mxCell id="flow-no2" value="No" style="text;html=1;align=center;verticalAlign=middle;whiteSpace=wrap;rounded=0;fontSize=8" vertex="1" parent="1">
          <mxGeometry x="250" y="785" width="20" height="20" as="geometry" />
        </mxCell>

        <mxCell id="flow10" style="endArrow=classic;html=1;rounded=0;exitX=0.5;exitY=1;exitDx=0;exitDy=0;entryX=0.5;entryY=0;entryDx=0;entryDy=0" edge="1" parent="1" source="practice-needed" target="complete-exercise">
          <mxGeometry width="50" height="50" relative="1" as="geometry">
            <mxPoint x="240" y="880" as="sourcePoint" />
            <mxPoint x="240" y="910" as="targetPoint" />
          </mxGeometry>
        </mxCell>

        <mxCell id="flow-no3" value="No" style="text;html=1;align=center;verticalAlign=middle;whiteSpace=wrap;rounded=0;fontSize=8" vertex="1" parent="1">
          <mxGeometry x="250" y="885" width="20" height="20" as="geometry" />
        </mxCell>

        <mxCell id="flow11" style="endArrow=classic;html=1;rounded=0;exitX=0.5;exitY=1;exitDx=0;exitDy=0;entryX=0.5;entryY=0;entryDx=0;entryDy=0" edge="1" parent="1" source="complete-exercise" target="complete-assessment">
          <mxGeometry width="50" height="50" relative="1" as="geometry">
            <mxPoint x="240" y="950" as="sourcePoint" />
            <mxPoint x="240" y="980" as="targetPoint" />
          </mxGeometry>
        </mxCell>

        <!-- Loop back for more practice -->
        <mxCell id="loop2" style="endArrow=classic;html=1;rounded=0;exitX=0;exitY=0.5;exitDx=0;exitDy=0;entryX=0;entryY=0.5;entryDx=0;entryDy=0" edge="1" parent="1" source="practice-needed" target="start-visualization">
          <mxGeometry width="50" height="50" relative="1" as="geometry">
            <mxPoint x="205" y="845" as="sourcePoint" />
            <mxPoint x="180" y="520" as="targetPoint" />
            <Array as="points">
              <mxPoint x="100" y="845" />
              <mxPoint x="100" y="520" />
            </Array>
          </mxGeometry>
        </mxCell>

        <mxCell id="flow-yes2" value="Yes" style="text;html=1;align=center;verticalAlign=middle;whiteSpace=wrap;rounded=0;fontSize=8" vertex="1" parent="1">
          <mxGeometry x="105" y="680" width="20" height="20" as="geometry" />
        </mxCell>

        <!-- System Flow Arrows -->
        <mxCell id="sys-flow1" style="endArrow=classic;html=1;rounded=0;exitX=1;exitY=0.5;exitDx=0;exitDy=0;entryX=0;entryY=0.5;entryDx=0;entryDy=0" edge="1" parent="1" source="login" target="validate-user">
          <mxGeometry width="50" height="50" relative="1" as="geometry">
            <mxPoint x="300" y="210" as="sourcePoint" />
            <mxPoint x="460" y="210" as="targetPoint" />
          </mxGeometry>
        </mxCell>

        <mxCell id="sys-flow2" style="endArrow=classic;html=1;rounded=0;exitX=1;exitY=0.5;exitDx=0;exitDy=0;entryX=0;entryY=0.5;entryDx=0;entryDy=0" edge="1" parent="1" source="select-algorithm" target="load-algorithm">
          <mxGeometry width="50" height="50" relative="1" as="geometry">
            <mxPoint x="300" y="280" as="sourcePoint" />
            <mxPoint x="460" y="280" as="targetPoint" />
          </mxGeometry>
        </mxCell>

        <mxCell id="sys-flow3" style="endArrow=classic;html=1;rounded=0;exitX=1;exitY=0.5;exitDx=0;exitDy=0;entryX=0;entryY=0.5;entryDx=0;entryDy=0" edge="1" parent="1" source="read-theory" target="display-theory">
          <mxGeometry width="50" height="50" relative="1" as="geometry">
            <mxPoint x="300" y="350" as="sourcePoint" />
            <mxPoint x="460" y="350" as="targetPoint" />
          </mxGeometry>
        </mxCell>

        <mxCell id="sys-flow4" style="endArrow=classic;html=1;rounded=0;exitX=1;exitY=0.5;exitDx=0;exitDy=0;entryX=0;entryY=0.5;entryDx=0;entryDy=0" edge="1" parent="1" source="start-visualization" target="prepare-visualizer">
          <mxGeometry width="50" height="50" relative="1" as="geometry">
            <mxPoint x="300" y="520" as="sourcePoint" />
            <mxPoint x="460" y="520" as="targetPoint" />
          </mxGeometry>
        </mxCell>

        <mxCell id="sys-flow5" style="endArrow=classic;html=1;rounded=0;exitX=1;exitY=0.5;exitDx=0;exitDy=0;entryX=0;entryY=0.5;entryDx=0;entryDy=0" edge="1" parent="1" source="interact-demo" target="render-animation">
          <mxGeometry width="50" height="50" relative="1" as="geometry">
            <mxPoint x="300" y="590" as="sourcePoint" />
            <mxPoint x="460" y="590" as="targetPoint" />
          </mxGeometry>
        </mxCell>

        <mxCell id="sys-flow6" style="endArrow=classic;html=1;rounded=0;exitX=1;exitY=0.5;exitDx=0;exitDy=0;entryX=0;entryY=0.5;entryDx=0;entryDy=0" edge="1" parent="1" source="practice-code" target="code-playground">
          <mxGeometry width="50" height="50" relative="1" as="geometry">
            <mxPoint x="300" y="660" as="sourcePoint" />
            <mxPoint x="460" y="660" as="targetPoint" />
          </mxGeometry>
        </mxCell>

        <mxCell id="sys-flow7" style="endArrow=classic;html=1;rounded=0;exitX=1;exitY=0.5;exitDx=0;exitDy=0;entryX=0;entryY=0.5;entryDx=0;entryDy=0" edge="1" parent="1" source="practice-needed" target="track-progress">
          <mxGeometry width="50" height="50" relative="1" as="geometry">
            <mxPoint x="275" y="845" as="sourcePoint" />
            <mxPoint x="460" y="830" as="targetPoint" />
          </mxGeometry>
        </mxCell>

        <mxCell id="sys-flow8" style="endArrow=classic;html=1;rounded=0;exitX=1;exitY=0.5;exitDx=0;exitDy=0;entryX=0;entryY=0.5;entryDx=0;entryDy=0" edge="1" parent="1" source="complete-exercise" target="run-performance-test">
          <mxGeometry width="50" height="50" relative="1" as="geometry">
            <mxPoint x="300" y="930" as="sourcePoint" />
            <mxPoint x="460" y="930" as="targetPoint" />
          </mxGeometry>
        </mxCell>

        <mxCell id="sys-flow9" style="endArrow=classic;html=1;rounded=0;exitX=1;exitY=0.5;exitDx=0;exitDy=0;entryX=0;entryY=0.5;entryDx=0;entryDy=0" edge="1" parent="1" source="complete-assessment" target="save-results">
          <mxGeometry width="50" height="50" relative="1" as="geometry">
            <mxPoint x="300" y="1000" as="sourcePoint" />
            <mxPoint x="460" y="1000" as="targetPoint" />
          </mxGeometry>
        </mxCell>

        <mxCell id="sys-flow10" style="endArrow=classic;html=1;rounded=0;exitX=0.5;exitY=1;exitDx=0;exitDy=0;entryX=0.5;entryY=0;entryDx=0;entryDy=0" edge="1" parent="1" source="save-results" target="generate-certificate">
          <mxGeometry width="50" height="50" relative="1" as="geometry">
            <mxPoint x="520" y="1020" as="sourcePoint" />
            <mxPoint x="520" y="1050" as="targetPoint" />
          </mxGeometry>
        </mxCell>

        <mxCell id="sys-flow11" style="endArrow=classic;html=1;rounded=0;exitX=0.5;exitY=1;exitDx=0;exitDy=0;entryX=0.5;entryY=0;entryDx=0;entryDy=0" edge="1" parent="1" source="generate-certificate" target="end">
          <mxGeometry width="50" height="50" relative="1" as="geometry">
            <mxPoint x="520" y="1090" as="sourcePoint" />
            <mxPoint x="520" y="1120" as="targetPoint" />
          </mxGeometry>
        </mxCell>

        <!-- AI Flow Arrows -->
        <mxCell id="ai-flow1" style="endArrow=classic;html=1;rounded=0;exitX=1;exitY=0.5;exitDx=0;exitDy=0;entryX=0;entryY=0.5;entryDx=0;entryDy=0" edge="1" parent="1" source="load-algorithm" target="analyze-difficulty">
          <mxGeometry width="50" height="50" relative="1" as="geometry">
            <mxPoint x="580" y="280" as="sourcePoint" />
            <mxPoint x="740" y="280" as="targetPoint" />
          </mxGeometry>
        </mxCell>

        <mxCell id="ai-flow2" style="endArrow=classic;html=1;rounded=0;exitX=1;exitY=0.5;exitDx=0;exitDy=0;entryX=0;entryY=0.5;entryDx=0;entryDy=0" edge="1" parent="1" source="understand-theory" target="provide-explanation">
          <mxGeometry width="50" height="50" relative="1" as="geometry">
            <mxPoint x="275" y="435" as="sourcePoint" />
            <mxPoint x="740" y="420" as="targetPoint" />
            <Array as="points">
              <mxPoint x="640" y="435" />
              <mxPoint x="640" y="420" />
            </Array>
          </mxGeometry>
        </mxCell>

        <mxCell id="ai-flow3" style="endArrow=classic;html=1;rounded=0;exitX=1;exitY=0.5;exitDx=0;exitDy=0;entryX=0;entryY=0.5;entryDx=0;entryDy=0" edge="1" parent="1" source="prepare-visualizer" target="adaptive-hints">
          <mxGeometry width="50" height="50" relative="1" as="geometry">
            <mxPoint x="580" y="520" as="sourcePoint" />
            <mxPoint x="740" y="520" as="targetPoint" />
          </mxGeometry>
        </mxCell>

        <mxCell id="ai-flow4" style="endArrow=classic;html=1;rounded=0;exitX=1;exitY=0.5;exitDx=0;exitDy=0;entryX=0;entryY=0.5;entryDx=0;entryDy=0" edge="1" parent="1" source="render-animation" target="real-time-help">
          <mxGeometry width="50" height="50" relative="1" as="geometry">
            <mxPoint x="580" y="590" as="sourcePoint" />
            <mxPoint x="740" y="590" as="targetPoint" />
          </mxGeometry>
        </mxCell>

        <mxCell id="ai-flow5" style="endArrow=classic;html=1;rounded=0;exitX=1;exitY=0.5;exitDx=0;exitDy=0;entryX=0;entryY=0.5;entryDx=0;entryDy=0" edge="1" parent="1" source="need-help" target="generate-hints">
          <mxGeometry width="50" height="50" relative="1" as="geometry">
            <mxPoint x="275" y="745" as="sourcePoint" />
            <mxPoint x="740" y="730" as="targetPoint" />
            <Array as="points">
              <mxPoint x="620" y="745" />
              <mxPoint x="620" y="730" />
            </Array>
          </mxGeometry>
        </mxCell>

        <mxCell id="flow-yes3" value="Yes" style="text;html=1;align=center;verticalAlign=middle;whiteSpace=wrap;rounded=0;fontSize=8" vertex="1" parent="1">
          <mxGeometry x="500" y="720" width="20" height="20" as="geometry" />
        </mxCell>

        <mxCell id="ai-flow6" style="endArrow=classic;html=1;rounded=0;exitX=0.5;exitY=1;exitDx=0;exitDy=0;entryX=0.5;entryY=0;entryDx=0;entryDy=0" edge="1" parent="1" source="generate-hints" target="optimize-code">
          <mxGeometry width="50" height="50" relative="1" as="geometry">
            <mxPoint x="800" y="750" as="sourcePoint" />
            <mxPoint x="800" y="780" as="targetPoint" />
          </mxGeometry>
        </mxCell>

        <mxCell id="ai-flow7" style="endArrow=classic;html=1;rounded=0;exitX=0.5;exitY=1;exitDx=0;exitDy=0;entryX=0.5;entryY=0;entryDx=0;entryDy=0" edge="1" parent="1" source="optimize-code" target="answer-questions">
          <mxGeometry width="50" height="50" relative="1" as="geometry">
            <mxPoint x="800" y="820" as="sourcePoint" />
            <mxPoint x="800" y="850" as="targetPoint" />
          </mxGeometry>
        </mxCell>

        <!-- Help loop back -->
        <mxCell id="help-loop" style="endArrow=classic;html=1;rounded=0;exitX=0;exitY=0.5;exitDx=0;exitDy=0;entryX=1;entryY=0.5;entryDx=0;entryDy=0" edge="1" parent="1" source="answer-questions" target="practice-code">
          <mxGeometry width="50" height="50" relative="1" as="geometry">
            <mxPoint x="740" y="870" as="sourcePoint" />
            <mxPoint x="300" y="660" as="targetPoint" />
            <Array as="points">
              <mxPoint x="700" y="870" />
              <mxPoint x="700" y="950" />
              <mxPoint x="350" y="950" />
              <mxPoint x="350" y="660" />
            </Array>
          </mxGeometry>
        </mxCell>

        <mxCell id="ai-flow8" style="endArrow=classic;html=1;rounded=0;exitX=1;exitY=0.5;exitDx=0;exitDy=0;entryX=0;entryY=0.5;entryDx=0;entryDy=0" edge="1" parent="1" source="track-progress" target="personalize-content">
          <mxGeometry width="50" height="50" relative="1" as="geometry">
            <mxPoint x="580" y="830" as="sourcePoint" />
            <mxPoint x="740" y="940" as="targetPoint" />
            <Array as="points">
              <mxPoint x="620" y="830" />
              <mxPoint x="620" y="940" />
            </Array>
          </mxGeometry>
        </mxCell>

        <mxCell id="ai-flow9" style="endArrow=classic;html=1;rounded=0;exitX=1;exitY=0.5;exitDx=0;exitDy=0;entryX=0;entryY=0.5;entryDx=0;entryDy=0" edge="1" parent="1" source="save-results" target="evaluate-performance">
          <mxGeometry width="50" height="50" relative="1" as="geometry">
            <mxPoint x="580" y="1000" as="sourcePoint" />
            <mxPoint x="740" y="1000" as="targetPoint" />
          </mxGeometry>
        </mxCell>

        <!-- AI feedback arrows -->
        <mxCell id="feedback1" style="endArrow=classic;html=1;rounded=0;exitX=0;exitY=0.5;exitDx=0;exitDy=0;entryX=1;entryY=0.5;entryDx=0;entryDy=0;strokeColor=#FF6666;dashed=1" edge="1" parent="1" source="provide-explanation" target="understand-theory">
          <mxGeometry width="50" height="50" relative="1" as="geometry">
            <mxPoint x="740" y="420" as="sourcePoint" />
            <mxPoint x="275" y="435" as="targetPoint" />
            <Array as="points">
              <mxPoint x="720" y="420" />
              <mxPoint x="720" y="460" />
              <mxPoint x="290" y="460" />
              <mxPoint x="290" y="435" />
            </Array>
          </mxGeometry>
        </mxCell>

        <mxCell id="feedback2" style="endArrow=classic;html=1;rounded=0;exitX=0;exitY=0.5;exitDx=0;exitDy=0;entryX=1;entryY=0.5;entryDx=0;entryDy=0;strokeColor=#FF6666;dashed=1" edge="1" parent="1" source="real-time-help" target="interact-demo">
          <mxGeometry width="50" height="50" relative="1" as="geometry">
            <mxPoint x="740" y="590" as="sourcePoint" />
            <mxPoint x="300" y="590" as="targetPoint" />
          </mxGeometry>
        </mxCell>

        <mxCell id="feedback3" style="endArrow=classic;html=1;rounded=0;exitX=0;exitY=0.5;exitDx=0;exitDy=0;entryX=1;entryY=0.5;entryDx=0;entryDy=0;strokeColor=#FF6666;dashed=1" edge="1" parent="1" source="personalize-content" target="practice-needed">
          <mxGeometry width="50" height="50" relative="1" as="geometry">
            <mxPoint x="740" y="940" as="sourcePoint" />
            <mxPoint x="275" y="845" as="targetPoint" />
            <Array as="points">
              <mxPoint x="720" y="940" />
              <mxPoint x="720" y="890" />
              <mxPoint x="290" y="890" />
              <mxPoint x="290" y="845" />
            </Array>
          </mxGeometry>
        </mxCell>

      </root>
    </mxGraphModel>
  </diagram>
</mxfile>
